<svg xmlns="http://www.w3.org/2000/svg" xmlns:xlink="http://www.w3.org/1999/xlink" width="398.667" height="109.333" viewBox="0 0 299 82" xmlns:v="https://vecta.io/nano"><g fill="rgb(100%,100%,100%)"><path d="M149.44 65.848c.293 0 .473.117.473.4s-.18.414-.473.414c-.824 0-1.707.176-2.473.53-.707.355-1.355.766-1.887 1.355-.47.53-.883 1.184-1.176 1.832-.293.6-.414 1.297-.414 1.945a3.18 3.18 0 0 0 1.004 2.539c.824.707 1.883 1.12 2.94 1.004 1.285.117 2.543-.414 3.36-1.418.4-.53.586-1.238.586-1.887a2.56 2.56 0 0 0-.586-1.832 1.67 1.67 0 0 0-1.473-.648c-.648 0-1.238.18-1.828.473s-1.06.707-1.4 1.3l-.473-.594c.355-.6.883-1.12 1.53-1.414.6-.297 1.238-.53 1.883-.53.473 0 .945.06 1.355.234.355.12.648.355.94.6.664.723 1.004 1.68.94 2.656-.008.676-.168 1.344-.47 1.95-.293.53-.707 1.004-1.18 1.414-1 .77-2.293 1.12-3.53 1.12-1.414 0-2.766-.47-3.828-1.355-.527-.473-1-1.004-1.234-1.652-.355-.707-.473-1.477-.473-2.3 0-3.012 2.004-4.898 5.945-5.727-1.117-.473-1.883-1.535-1.883-2.773 0-.992.457-1.926 1.238-2.535.824-.77 1.94-1.125 3.062-1.125 1.06 0 2.06.414 2.824 1.184.6.648.883 1.473.883 2.3 0 .355-.06.707-.293 1.004a.84.84 0 0 1-.707.352.98.98 0 0 1-.707-.293 1.1 1.1 0 0 1-.293-.707c0-.238 0-.414.117-.652.06-.117.117-.234.234-.352.117-.06.176-.12.293-.18s.297-.06.414-.06c-.176-.53-.53-.94-1-1.238-.53-.297-1.12-.473-1.707-.473-1.473 0-2.652 1.18-2.652 2.598v.117c-.06.766.238 1.535.707 2.125.234.297.6.414.94.414zm8.125 7.848c0 1.414.234 2.125.648 2.125.352 0 .824-.6 1.473-1.77l.4.47c-.176.473-.47.945-.766 1.418-.586.828-1.06 1.238-1.6 1.238-.352 0-.586-.234-.824-.648-.234-.473-.293-.945-.293-1.477-.176.6-.53 1.12-1 1.594-.297.297-.707.53-1.18.53-.766 0-1.176-.473-1.176-1.355a1.13 1.13 0 0 1 .234-.71c.117-.176.293-.293.473-.293s.293 0 .47.117c.117.06.234.238.297.355.117.352.176.707.234 1.062.234 0 .53-.238.766-.77.293-.6.47-1.238.527-1.887h-1.4l.234-.414h1.176v-.945c0-.234 0-.47-.06-.766-.06-.648-.176-.945-.4-.945s-.53.238-.883.828l-.297.53-.176.293-.06.06-.53-.47c.766-1.477 1.53-2.246 2.238-2.246.53 0 .94.473 1.12 1.477.06.176.06.414.117.6.6-1.355 1.293-2.066 2.117-2.066.238 0 .414.12.6.238.176.234.297.473.234.766a1.89 1.89 0 0 1-.176.828c-.117.176-.293.293-.527.352-.238 0-.473-.117-.6-.293l-.355-.53-.117-.297c-.352.297-.586.652-.766 1.062-.176.473-.293.945-.293 1.418h1.297l.117.414zm8.656.824l.352.355c-.234.648-.645 1.238-1.234 1.7-.473.355-1.12.6-1.707.6s-1.18-.234-1.53-.707c-.414-.6-.648-1.297-.6-2.066 0-.824.176-1.652.6-2.418a4.54 4.54 0 0 1 1.531-1.652c.527-.355 1.176-.6 1.824-.6.6-.06 1.176.176 1.53.707a1.58 1.58 0 0 1 .176.707c0 .234-.06.53-.234.7-.176.293-.6.352-.883.176l-.18-.176c-.176-.18-.234-.414-.234-.7s.176-.6.414-.766c-.18-.117-.414-.117-.648-.117-.473 0-.883.234-1.18.6a4.52 4.52 0 0 0-.824 1.473c-.176.53-.293 1.12-.293 1.715 0 .47.06.94.293 1.355.18.297.53.53.883.53.414 0 .766-.176 1.12-.414.352-.293.648-.648.824-1.004zm3.945.12c-.06.707.4 1.297 1.117 1.355h.297c.352 0 .707-.117 1.06-.355s.648-.53.883-.883l.352.352a3.32 3.32 0 0 1-2.414 2.008c-.234.06-.47.06-.703.06-.648 0-1.238-.293-1.648-.824-.414-.6-.648-1.36-.648-2.066 0-.766.234-1.594.586-2.3.355-.648.824-1.18 1.414-1.594.473-.355 1.062-.6 1.707-.6.53 0 1.062.176 1.414.53.414.352.648.824.6 1.355a3.23 3.23 0 0 1-.355 1.477c-.234.414-.586.707-1 .945-.707.4-1.53.6-2.297.648h-.352zm-.06-.652c.6 0 1.117-.117 1.6-.4.352-.18.648-.473.883-.828.176-.293.234-.648.234-1.004 0-.293-.06-.53-.234-.766-.117-.117-.234-.238-.473-.238-.4 0-.824.18-1.06.53-.352.355-.6.828-.707 1.3-.176.352-.234.883-.234 1.414zm9.07-12.863h1.473c-.473 1.297-.883 2.598-1.18 3.895L178 71.098c-.297 1.238-.53 2.48-.648 3.777 0 .473.06.707.117.707.234 0 .648-.53 1.176-1.53l.355.47a7.97 7.97 0 0 1-.883 1.535c-.53.7-1 1.12-1.297 1.12-.6 0-.94-.473-.94-1.473.117-2.305.53-4.605 1.117-6.906.6-2.598 1.297-5.133 2.18-7.672zm4.594 0h1.473c-.473 1.297-.883 2.598-1.18 3.895l-1.473 6.078c-.293 1.238-.527 2.48-.645 3.777 0 .473.06.707.117.707.234 0 .648-.53 1.176-1.53l.355.47c-.238.53-.53 1.062-.883 1.535-.53.7-1.004 1.12-1.297 1.12-.6 0-.94-.473-.94-1.473.117-2.305.527-4.605 1.117-6.906l2.18-7.672zm2.824 13.516c-.06.707.414 1.297 1.12 1.355h.293c.355 0 .766-.117 1.06-.355a3.18 3.18 0 0 0 .887-.883l.4.352c-.4 1.004-1.297 1.773-2.414 2.008-.234.06-.47.06-.707.06a2.06 2.06 0 0 1-1.648-.824c-.47-.6-.648-1.36-.648-2.066 0-.766.18-1.594.6-2.242.355-.648.824-1.18 1.414-1.594.47-.355 1.06-.6 1.707-.6.53 0 1.06.176 1.473.53s.648.824.6 1.355c.06 1.004-.473 1.9-1.355 2.363-.707.4-1.53.6-2.297.648zm-.06-.652c.6 0 1.12-.117 1.6-.4.355-.18.645-.47.824-.828.18-.293.238-.648.238-1.004 0-.293-.06-.53-.238-.766-.117-.176-.234-.238-.47-.238-.414 0-.824.238-1.062.53-.352.355-.586.828-.703 1.3zm8.187-.352c1.234-2.54 2.414-3.836 3.414-3.836.293 0 .6.117.766.414s.234.648.234 1c-.06.7-.176 1.477-.4 2.125-.18.6-.355 1.242-.414 1.9 0 .234.06.352.117.352s.297-.176.53-.473c.234-.352.47-.648.648-1.06l.352.47c-.293.7-.648 1.36-1.176 1.95-.414.473-.766.648-1.062.648-.234 0-.47-.117-.645-.352-.18-.297-.238-.652-.238-.945.062-.68.18-1.352.355-2.008.176-.648.293-1.297.352-1.945 0-.414-.117-.594-.293-.594s-.53.18-.824.594a5.58 5.58 0 0 0-.883 1.414l-1.473 3.07-.238.6h-1.293l.293-1.12a24.97 24.97 0 0 0 .824-3.66c0-.414-.06-.6-.117-.6s-.352.297-.648.828c-.06.117-.117.234-.117.293s-.06.176-.117.297-.06.176-.06.176l-.6-.473c.355-.766.766-1.535 1.297-2.242.234-.414.707-.648 1.176-.707.176 0 .414.117.473.293.117.238.234.473.176.77 0 .293 0 .6-.06.883s-.06.53-.117.7-.06.4-.176.707-.06.53-.06.53zm11.305.945l.352.352c-.234.648-.648 1.238-1.234 1.7-.473.414-1.12.6-1.7.648-.586 0-1.176-.234-1.527-.707-.473-.6-.648-1.297-.6-2.066 0-.824.234-1.652.648-2.418a4.54 4.54 0 0 1 1.531-1.652c.527-.355 1.176-.6 1.824-.6.6-.06 1.176.234 1.53.707a1.59 1.59 0 0 1 .176.707c0 .234-.06.53-.234.7-.18.293-.6.352-.883.176l-.18-.176c-.176-.18-.234-.414-.234-.7s.176-.6.414-.766c-.18-.06-.414-.117-.648-.117-.473 0-.883.234-1.18.6a4.54 4.54 0 0 0-.824 1.477c-.176.53-.293 1.12-.293 1.7 0 .473.06.94.293 1.355.176.297.53.53.883.53.414 0 .766-.176 1.12-.414.293-.352.586-.707.766-1.06zm3.945.117c-.06.707.4 1.297 1.117 1.355h.293a1.61 1.61 0 0 0 1.004-.352 3.2 3.2 0 0 0 .883-.887l.4.355a3.34 3.34 0 0 1-2.414 2.004c-.234.06-.47.06-.707.06-.645 0-1.234-.352-1.648-.883-.47-.6-.645-1.36-.645-2.066 0-.766.176-1.594.586-2.3.355-.648.824-1.18 1.414-1.594.473-.355 1.06-.6 1.707-.6.53 0 1.06.176 1.414.53.4.352.648.824.6 1.355a3.23 3.23 0 0 1-.355 1.477c-.234.414-.6.707-1 .945-.707.4-1.53.6-2.297.648zm-.06-.648c.586 0 1.117-.12 1.6-.414.352-.18.645-.473.883-.828.176-.293.234-.648.234-1.004 0-.293-.06-.53-.234-.766-.117-.176-.238-.234-.473-.234a1.45 1.45 0 0 0-1.06.53 2.69 2.69 0 0 0-.707 1.297c-.176.414-.234.887-.234 1.418zm25.613.47l.586.355a4.2 4.2 0 0 1-.645 1.477c-.355.6-.945.94-1.652 1.004-.586 0-1.06-.473-1.47-1.36-.355-.766-.6-1.535-.824-2.3l-.473-1.828c-.293-.945-.53-1.36-.824-1.36-.6 2.3-1.473 4.074-2.6 5.195-1.062 1.12-2.594 1.77-4.12 1.7-.945 0-1.828-.297-2.594-.828-.4-.293-.707-.648-.883-1.12a3.95 3.95 0 0 1-.352-1.652 4.5 4.5 0 0 1 .352-1.77c.235-.532.53-1.004 1-1.36.766-.707 1.77-1.062 2.828-1.062a10.97 10.97 0 0 1 1.648-5.723c.883-1.535 2.18-2.773 3.77-3.543.648-.293 1.352-.47 2.06-.47.53 0 1.12.06 1.648.234a5.5 5.5 0 0 1 1.297.707c.414.355.707.77.94 1.3a5.06 5.06 0 0 1 .355 1.887c0 .707-.117 1.36-.297 2.008a6.02 6.02 0 0 1-.824 1.77c-.707 1.004-1.6 1.828-2.6 2.48.414.47.883 1.53 1.355 3.246.117.53.352 1.12.586 1.652.238.47.473.707.707.707s.473-.176.6-.414c.06-.234.234-.6.414-.945zm-10.66-1.18l-.527.18c-.18-.652-.355-1.36-.414-2.008l-.06-.473c-.94 0-1.883.297-2.648.945-.297.234-.473.53-.648.824-.176.355-.293.77-.234 1.18 0 .414.117.828.293 1.242a2.18 2.18 0 0 0 .766.883 3.57 3.57 0 0 0 2.062.652c1.176.06 2.352-.473 3.117-1.36.887-1.12 1.53-2.48 1.828-3.895.117-.355.234-.828.352-1.418l.355-1.473c.06-.355.234-.828.352-1.36s.293-1.004.414-1.355a9.72 9.72 0 0 1 .527-1.242c.176-.4.414-.824.648-1.238.473-.766 1.06-1.477 1.766-2.008-.234-.176-.527-.234-.824-.293-.4-.117-.766-.117-1.176-.117-.824 0-1.6.293-2.238.766-.766.53-1.473 1.18-2.062 1.95-.645.883-1.117 1.828-1.473 2.832a9.05 9.05 0 0 0-.586 3.246c1.352.234 2.473 1.12 3.12 2.3l-.297.414c-.06 0-.117-.117-.293-.238s-.293-.293-.473-.4l-.586-.355a2.65 2.65 0 0 0-1.473-.414c0 .53.117 1.062.234 1.535zm5.36-3.008a5.81 5.81 0 0 0 2.648-2.242c.707-1.062 1.12-2.363 1.062-3.66 0-.473-.06-1.004-.238-1.477-.117-.414-.293-.824-.586-1.18-.648.6-1.18 1.297-1.473 2.125l-.473 1.18c-.176.473-.293.945-.352 1.418-.18.766-.297 1.535-.414 2.36l-.176 1.477zm8.598 4.426c-.06.707.4 1.297 1.117 1.355h.293c.355 0 .766-.117 1.062-.352a3.18 3.18 0 0 0 .883-.887l.4.355a3.33 3.33 0 0 1-2.414 2.004c-.234.06-.47.06-.703.06-.648 0-1.238-.293-1.652-.824-.4-.6-.645-1.36-.645-2.066 0-.766.176-1.594.586-2.242.355-.648.824-1.18 1.414-1.594.473-.352 1.06-.6 1.707-.6.53 0 1.062.176 1.414.53.414.355.648.828.648 1.36 0 .512-.12 1.016-.355 1.473-.234.414-.586.7-1 .945-.707.414-1.53.6-2.297.648zm-.06-.648c.586 0 1.117-.18 1.6-.414.355-.18.645-.47.824-.828.176-.293.234-.648.234-1 0-.297-.06-.594-.234-.828-.117-.176-.238-.234-.473-.234a1.45 1.45 0 0 0-1.06.53c-.355.352-.6.824-.766 1.297-.06.414-.117.945-.117 1.477zm10.066 1.53c-.648 1.125-1.414 1.652-2.297 1.652-.586 0-1.176-.352-1.47-.824-.414-.648-.648-1.418-.6-2.184a5.17 5.17 0 0 1 1-3.07 2.98 2.98 0 0 1 2.297-1.297 1.94 1.94 0 0 1 1.117.355c.297.234.53.53.6.94l1.18-5.2c.4-1.594.883-3.13 1.47-4.664h1.473c-.824 2.422-1.53 4.898-2.06 7.437l-1.238 6.55c0 .293.06.473.117.473.238 0 .648-.53 1.18-1.535l.4.473a7.21 7.21 0 0 1-1.234 2.008c-.238.352-.648.527-1.062.648-.234 0-.47-.18-.586-.355-.18-.355-.238-.707-.238-1.12v-.117c-.06-.117-.06-.117-.06-.18zm-2.766-1.414c0 1.297.352 1.945 1.117 1.945s1.297-.6 1.707-1.828c.18-.473.297-.945.297-1.418 0-1.297-.355-1.945-1.12-1.945-.578.066-1.098.4-1.4.887a3.91 3.91 0 0 0-.59 2.359zm8.9.53c-.06.707.4 1.297 1.117 1.355h.297c.352 0 .766-.117 1.06-.352a3.18 3.18 0 0 0 .883-.887l.414.355c-.414 1.004-1.297 1.77-2.414 2.004-.238.06-.473.06-.707.06-.648 0-1.238-.293-1.648-.824-.473-.6-.648-1.36-.648-2.066 0-.766.176-1.594.6-2.242a4.71 4.71 0 0 1 1.4-1.594c.473-.352 1.062-.6 1.707-.6.53 0 1.062.176 1.414.53.414.355.6.828.6 1.36a3.22 3.22 0 0 1-.352 1.473c-.238.414-.6.7-1.004.945-.707.414-1.53.6-2.297.648zm-.06-.648c.6 0 1.117-.12 1.6-.414a1.86 1.86 0 0 0 .824-.828c.176-.293.234-.648.234-1 0-.297-.06-.53-.234-.77-.117-.117-.234-.234-.473-.234-.4 0-.824.176-1.06.53-.355.352-.6.824-.766 1.297 0 .414-.117.887-.117 1.418zm8.9-3.13l-.234 1.238-1.004 4.723c-.527 1.77-1.176 2.832-2 3.305a1.99 1.99 0 0 1-1 .293c-.297 0-.53-.06-.707-.234-.117-.176-.176-.355-.238-.6 0-.238.063-.414.18-.648.117-.18.293-.238.47-.238s.355.06.473.18.176.293.176.47-.06.355-.117.53c.648-.117 1.176-1.652 1.707-4.66.06-.473.176-1.004.293-1.652l.238-1.418.234-1.238h-1.707l.117-.766h1.707c.707-3.836 1.6-6.492 2.53-8.027.824-1.238 1.77-1.9 2.887-1.9.473 0 .883.12 1.297.414.352.355.586.828.527 1.36 0 .293-.06.648-.293.883-.176.18-.414.297-.648.297s-.473-.117-.648-.297c-.176-.234-.293-.473-.293-.766s.06-.648.234-.887a1.57 1.57 0 0 0-.707-.176c-.234.06-.4.176-.586.355-.238.234-.473.53-.6.883-.707 1.418-1.414 4.074-2.062 7.9h2.18l-.117.766h-2.297zm4.477 6.375c-.238 0-.473-.12-.6-.297-.176-.234-.234-.53-.234-.824 0-.473.117-1.004.234-1.477.117-.648.293-1.18.4-1.7.117-.355.18-.648.238-1.004 0-.176-.06-.238-.12-.238-.234 0-.527.53-1 1.652l-.6-.47c.887-1.95 1.7-2.953 2.418-2.953.527 0 .762.414.762 1.238 0 .414-.06.77-.176 1.184l-.648 2.477a2.09 2.09 0 0 0-.117.648c0 .18.06.297.18.297.176 0 .586-.53 1.117-1.477l.352.473c-.293.707-.645 1.36-1.176 1.9-.473.352-.824.6-1.06.6zm2.6-10.918a1.66 1.66 0 0 1-.234.883c-.133.238-.38.395-.648.414-.238 0-.473-.117-.648-.355-.117-.234-.234-.53-.234-.824s.06-.648.234-.887c.133-.238.375-.395.648-.414a.64.64 0 0 1 .586.355c.18.238.297.53.297.828zm3.53 7.375c1.238-2.54 2.414-3.836 3.414-3.836.297 0 .6.117.766.414s.238.648.238 1.004c-.06.707-.176 1.473-.414 2.125-.176.6-.352 1.238-.4 1.887 0 .234.06.355.117.355s.293-.18.53-.473c.234-.355.47-.648.645-1.062l.355.473c-.297.707-.648 1.355-1.18 1.945-.234.355-.648.6-1.06.648-.234 0-.473-.117-.648-.352-.176-.297-.234-.648-.234-.945a12.14 12.14 0 0 1 .352-2.008 10.88 10.88 0 0 0 .355-1.945c0-.355-.117-.6-.297-.6s-.527.176-.824.6c-.352.414-.645.883-.883 1.414l-1.473 3.07-.234.6h-1.297l.297-1.12a25.35 25.35 0 0 0 .824-3.66c0-.4-.06-.6-.117-.6s-.355.297-.648.828c-.06.117-.117.234-.117.293s-.06.18-.117.297l-.06.176-.6-.473c.352-.766.766-1.53 1.293-2.242a1.68 1.68 0 0 1 1.18-.707c.176 0 .4.117.473.297.117.234.234.47.176.766 0 .293 0 .6-.06.887s-.06.53-.117.707-.063.414-.18.707-.06.473-.06.53zm8.305 1.004c-.06.707.4 1.297 1.117 1.355h.293c.355 0 .766-.117 1.062-.352a3.18 3.18 0 0 0 .883-.887l.4.355a3.33 3.33 0 0 1-2.414 2.004c-.234.063-.47.063-.707.063-.645 0-1.234-.297-1.648-.828-.47-.6-.645-1.355-.645-2.066 0-.766.176-1.594.586-2.3.355-.648.824-1.18 1.414-1.594.473-.352 1.06-.6 1.707-.6.53 0 1.062.176 1.473.53s.6.828.6 1.36c0 .512-.12 1.016-.355 1.473-.234.414-.586.7-1 .945-.707.414-1.53.6-2.297.648zm-.06-.648c.586 0 1.117-.18 1.6-.414.355-.18.645-.47.824-.828.176-.293.234-.648.234-1 0-.297-.06-.53-.234-.77-.12-.117-.238-.234-.473-.234-.414 0-.824.176-1.06.53a2.69 2.69 0 0 0-.707 1.297c-.117.414-.176.887-.176 1.418zm10.066 1.535c-.648 1.12-1.414 1.652-2.238 1.652-.586 0-1.176-.355-1.473-.828-.4-.648-.645-1.418-.586-2.184a5.17 5.17 0 0 1 1-3.07c.53-.766 1.355-1.238 2.238-1.297a1.94 1.94 0 0 1 1.117.355c.297.234.53.53.6.94l1.176-5.2c.414-1.594.887-3.13 1.473-4.664h1.473c-.824 2.422-1.53 4.898-2.06 7.437l-1.238 6.55c0 .297.06.473.117.473.234 0 .648-.53 1.18-1.535l.4.473c-.293.707-.707 1.418-1.234 2.008-.414.4-.766.648-1.062.648-.234 0-.47-.18-.6-.355-.176-.352-.234-.707-.234-1.12v-.06zm-2.766-1.418c0 1.297.352 1.95 1.117 1.95s1.297-.594 1.707-1.832c.176-.473.297-.945.297-1.414 0-1.3-.355-1.95-1.12-1.95-.6.06-1.117.355-1.414.887a4.12 4.12 0 0 0-.586 2.36zm0 0" stroke="rgb(100%,100%,100%)" stroke-miterlimit="10" stroke-width=".153"/><path d="M108.28 48.79L92.62 33.977c-.355-.293-.824-.355-1.238-.06l-4.004 3.13c-.234.176-.352.473-.352.707V48.14a.93.93 0 0 1-.941.945h-3.238a.94.94 0 0 1-.672-.273.96.96 0 0 1-.273-.672V17.453a.96.96 0 0 1 .273-.672.94.94 0 0 1 .672-.273h3.238a.93.93 0 0 1 .941.945V30.38c-.004.25.094.492.273.668s.418.277.668.273a1.13 1.13 0 0 0 .59-.176l19.195-14.93c.293-.238.766-.238 1.06-.062l1.824 1.184a1.02 1.02 0 0 1 .297 1.297c-.06.06-.117.176-.238.234L96.21 30.082c-.4.297-.47.887-.176 1.297 0 .06.06.06.117.12l16.78 15.934c.355.352.414.945.06 1.297-.176.176-.4.297-.645.297h-3.477c-.234 0-.4-.12-.6-.238zm36.39-31.75l16.016 30.512a.9.9 0 0 1-.414 1.238c-.117.06-.176.06-.293.117l-3.062.355c-.4.06-.766-.176-.94-.473l-4.355-8.496c-.18-.297-.473-.53-.824-.473h-17.43c-.355 0-.648.176-.824.53l-4.062 8.145c-.18.293-.473.53-.824.53h-2.887a.93.93 0 0 1-.941-.945c0-.117.06-.297.117-.414l15.367-30.63c.176-.293.473-.53.824-.53h3.77c.293.06.6.238.766.53zm-3.594 6.078l-6.18 12.277a.9.9 0 0 0 .41 1.238c.117.06.297.117.414.117h12.602c.25.004.492-.094.668-.273a.93.93 0 0 0 .273-.672c0-.176-.06-.293-.117-.4l-6.418-12.277a.9.9 0 0 0-1.238-.414c-.176.063-.293.238-.414.414zm0 0"/><use xlink:href="#B"/><path d="M222.512 48.082v-30.63a.96.96 0 0 1 .273-.672.93.93 0 0 1 .672-.273h3.238a.93.93 0 0 1 .668.273c.176.18.277.422.273.672v30.63a.95.95 0 0 1-.273.672.93.93 0 0 1-.668.273h-3.238a.93.93 0 0 1-.672-.273.96.96 0 0 1-.273-.672zm20.785 0v-30.63c0-.53.414-.945.883-.945h2.77c.234 0 .47.117.648.297l21.195 21.715 1 1.184c.355.4.887.47 1.297.117.234-.176.355-.414.355-.707v-21.66a.94.94 0 0 1 .941-.945h3.297a.93.93 0 0 1 .941.945v30.63a.93.93 0 0 1-.941.945h-2.77c-.234 0-.47-.12-.645-.297l-22.14-23.133c-.293-.414-.883-.473-1.297-.18-.234.18-.352.473-.352.77v21.895a.95.95 0 0 1-.273.672.93.93 0 0 1-.668.273h-3.297a.93.93 0 0 1-.672-.273.96.96 0 0 1-.273-.672zm48.993 0v-30.63a.94.94 0 0 1 .27-.672c.18-.176.422-.277.672-.273h3.238a.93.93 0 0 1 .941.945v30.63a.93.93 0 0 1-.941.945h-3.238a.95.95 0 0 1-.672-.273.94.94 0 0 1-.27-.672zm0 0"/></g><path d="M149.44 65.848c.293 0 .473.117.473.4s-.18.414-.53.414c-.824 0-1.707.176-2.473.53-.707.355-1.355.766-1.887 1.355-.47.53-.883 1.184-1.176 1.832-.293.6-.414 1.297-.473 1.945 0 .945.355 1.9 1.004 2.54.824.707 1.883 1.12 2.94 1.004 1.285.117 2.543-.414 3.355-1.418.414-.53.6-1.238.6-1.887.06-.648-.176-1.36-.6-1.832-.352-.4-.94-.707-1.47-.648-.648 0-1.238.18-1.828.473s-1.06.707-1.4 1.3l-.53-.594a3.82 3.82 0 0 1 1.53-1.414c.6-.294 1.234-.53 1.883-.53.473 0 .94.06 1.355.234.352.12.648.355.94.6a3.61 3.61 0 0 1 .94 2.656c-.008.676-.168 1.344-.47 1.95-.297.53-.707 1.004-1.18 1.414-1 .77-2.297 1.12-3.53 1.12-1.414 0-2.77-.47-3.828-1.355-.53-.473-1-1.004-1.297-1.652-.293-.707-.47-1.535-.47-2.3 0-3.012 2-4.898 5.945-5.727-1.117-.473-1.883-1.535-1.883-2.773a3.22 3.22 0 0 1 1.234-2.535c.824-.77 1.945-1.125 3.062-1.125 1.062 0 2.062.414 2.828 1.184.586.648.883 1.473.883 2.3 0 .355-.06.707-.297 1.004-.176.234-.4.352-.703.352a.97.97 0 0 1-.707-.293c-.176-.18-.297-.473-.297-.707s0-.414.12-.652c.06-.117.117-.234.234-.352.117-.06.176-.12.293-.18s.297-.06.414-.06c-.18-.53-.53-.94-1.004-1.238-.527-.297-1.117-.473-1.707-.473-1.473 0-2.648 1.18-2.648 2.598v.117c-.06.766.234 1.535.707 2.125.234.297.6.414.94.414zm8.125 7.848c0 1.414.234 2.125.648 2.125.352 0 .824-.6 1.473-1.77l.4.47c-.176.473-.47.945-.766 1.418-.586.828-1.06 1.238-1.6 1.18-.352 0-.586-.234-.824-.648-.234-.473-.352-.945-.293-1.477-.176.6-.53 1.12-1 1.594-.297.297-.707.53-1.18.53-.766 0-1.176-.473-1.176-1.355 0-.238.06-.53.176-.7s.293-.293.53-.293c.176 0 .352.06.47.117s.234.234.297.355c.117.352.176.707.234 1.062.234 0 .53-.238.766-.77.293-.6.47-1.238.527-1.887h-1.4l.234-.414h1.176v-.945c0-.234 0-.473-.06-.766-.06-.648-.176-.945-.4-.945s-.53.297-.883.828c-.117.176-.238.352-.297.53s-.176.234-.176.293l-.06.06-.6-.473c.824-1.473 1.53-2.242 2.238-2.242.53 0 .94.473 1.12 1.477.06.176.06.414.117.6.586-1.355 1.293-2.066 2.117-2.066.238 0 .414.12.6.238.176.234.293.473.234.766a1.89 1.89 0 0 1-.176.828c-.117.176-.293.293-.527.352-.238 0-.473-.117-.6-.293l-.355-.53-.117-.297c-.352.297-.6.648-.766 1.062-.176.473-.293.945-.293 1.418h1.293l.12.414zm8.656.766l.352.355c-.234.648-.645 1.238-1.234 1.7-.473.414-1.12.6-1.707.648-.6 0-1.18-.234-1.53-.707-.414-.6-.648-1.297-.6-2.066 0-.824.176-1.652.6-2.418a4.54 4.54 0 0 1 1.531-1.652c.527-.355 1.176-.6 1.824-.6.6-.06 1.176.234 1.53.707a1.58 1.58 0 0 1 .176.707c0 .234-.06.53-.234.7-.176.293-.6.4-.883.176l-.18-.176c-.176-.18-.234-.414-.234-.7s.176-.6.414-.766c-.18-.117-.414-.117-.648-.117-.473 0-.883.234-1.18.6a4.52 4.52 0 0 0-.824 1.473c-.176.53-.293 1.12-.293 1.715 0 .47.06.94.293 1.355.18.297.53.53.883.53.414 0 .766-.176 1.12-.414.352-.293.648-.648.824-1.062zm3.945.12c-.06.707.4 1.297 1.117 1.355h.297c.352 0 .707-.117 1.06-.355s.648-.53.883-.883l.352.352a3.32 3.32 0 0 1-2.414 2.008c-.234.06-.47.06-.703.06-.648 0-1.238-.293-1.648-.824-.414-.6-.648-1.36-.648-2.066 0-.77.176-1.594.586-2.3a4.56 4.56 0 0 1 1.414-1.594c.473-.355 1.062-.6 1.707-.6.53 0 1.062.176 1.473.53s.648.824.6 1.355a3.24 3.24 0 0 1-.355 1.477c-.234.414-.586.707-1 .945-.707.4-1.53.6-2.297.648h-.4zm-.06-.652c.6 0 1.117-.117 1.6-.4.352-.18.648-.473.883-.828.176-.293.234-.648.234-1.004 0-.293-.06-.53-.234-.766-.117-.18-.234-.238-.473-.238-.4 0-.824.238-1.06.53-.352.355-.6.828-.707 1.3-.176.4-.234.883-.234 1.414zm9.066-12.805h1.473c-.473 1.297-.883 2.598-1.18 3.895L178 71.098c-.297 1.238-.53 2.48-.648 3.777 0 .473.06.707.117.707.234 0 .648-.53 1.176-1.53l.355.47a7.97 7.97 0 0 1-.883 1.535c-.53.7-1 1.12-1.297 1.12-.6 0-.94-.473-.883-1.473.117-2.305.53-4.605 1.117-6.906.53-2.598 1.238-5.133 2.12-7.672zm4.598 0h1.473c-.473 1.297-.883 2.598-1.18 3.895l-1.473 6.078c-.293 1.238-.527 2.48-.645 3.777 0 .473.06.707.117.707.234 0 .648-.53 1.176-1.53l.355.47c-.238.53-.53 1.062-.883 1.535-.53.7-1.004 1.12-1.297 1.12-.6 0-.94-.473-.94-1.473.117-2.305.527-4.605 1.117-6.906.6-2.598 1.297-5.133 2.18-7.672zm2.824 13.515c-.06.707.414 1.297 1.12 1.355h.293c.355 0 .766-.117 1.06-.355a3.18 3.18 0 0 0 .887-.883l.4.352c-.4 1.004-1.297 1.773-2.414 2.008-.234.06-.47.06-.707.06a2.06 2.06 0 0 1-1.648-.824c-.47-.6-.648-1.36-.648-2.066 0-.766.18-1.594.6-2.242.355-.648.824-1.18 1.414-1.594.47-.355 1.06-.6 1.707-.6.53 0 1.06.176 1.414.53.4.352.648.824.586 1.355a3.17 3.17 0 0 1-.352 1.477c-.234.414-.6.707-1 .945-.707.414-1.53.6-2.297.648zm-.06-.652c.6 0 1.12-.117 1.6-.4.355-.18.645-.47.824-.828.18-.293.238-.648.238-1.004 0-.293-.06-.53-.238-.766-.117-.176-.234-.238-.47-.238-.414 0-.824.238-1.062.53-.352.355-.586.828-.703 1.3-.062.352-.18.883-.18 1.414zm8.187-.352c1.293-2.54 2.414-3.836 3.414-3.836.293 0 .6.117.766.414s.234.648.234 1c-.06.7-.176 1.477-.4 2.125-.18.6-.355 1.242-.414 1.9 0 .234.06.352.117.352s.297-.176.53-.473c.234-.352.47-.648.648-1.06l.352.47c-.293.7-.648 1.36-1.176 1.95-.238.355-.648.6-1.062.648-.234 0-.47-.117-.645-.352-.18-.297-.238-.652-.238-.945.062-.68.18-1.352.355-2.008.176-.648.293-1.297.352-1.945 0-.414-.117-.594-.293-.594s-.53.18-.824.594c-.355.4-.707.883-.94 1.414-.473.887-.945 1.9-1.414 3.07l-.238.6h-1.293l.293-1.12c.355-1.18.6-2.422.824-3.66 0-.414-.06-.6-.117-.6s-.352.297-.648.828c-.06.117-.117.234-.117.293s-.06.176-.117.297-.06.176-.06.176l-.6-.473c.355-.766.766-1.535 1.297-2.242.234-.414.707-.648 1.176-.707.176 0 .414.117.473.293.117.238.234.473.176.77 0 .293 0 .6-.06.883s-.06.53-.117.7-.06.4-.176.707-.06.53-.06.53zm11.305.883l.352.355c-.234.648-.648 1.238-1.234 1.7-.473.414-1.12.6-1.7.648-.586 0-1.176-.234-1.527-.707-.414-.6-.648-1.297-.6-2.066 0-.824.234-1.652.648-2.418a4.54 4.54 0 0 1 1.531-1.652c.527-.355 1.176-.6 1.824-.6.6-.06 1.176.234 1.53.707a1.58 1.58 0 0 1 .176.707c0 .234-.06.53-.234.7-.117.176-.355.293-.53.293a.62.62 0 0 1-.531-.293c-.176-.18-.234-.414-.234-.7s.176-.6.414-.766c-.18-.06-.414-.117-.648-.117-.473 0-.883.234-1.18.6a4.5 4.5 0 0 0-.824 1.477c-.176.527-.293 1.12-.293 1.7 0 .473.06.94.293 1.355.176.297.53.53.883.53.414 0 .766-.176 1.12-.414.352-.293.586-.648.766-1.062zm3.945.18c-.06.707.4 1.297 1.117 1.355h.293a1.61 1.61 0 0 0 1.004-.352 3.2 3.2 0 0 0 .883-.887l.4.355a3.34 3.34 0 0 1-2.414 2.004c-.234.06-.47.06-.707.06-.645 0-1.234-.293-1.648-.824-.47-.6-.645-1.36-.645-2.066 0-.766.176-1.594.586-2.3.355-.648.824-1.18 1.414-1.594.473-.355 1.06-.6 1.707-.6.53 0 1.06.176 1.414.53.4.352.648.824.6 1.355a3.23 3.23 0 0 1-.355 1.477c-.234.414-.6.707-1 .945-.707.414-1.53.6-2.297.648zm-.06-.648c.586 0 1.117-.12 1.6-.414.352-.18.645-.473.883-.828.176-.293.234-.648.234-1.004 0-.293-.06-.53-.234-.766-.117-.176-.238-.234-.473-.234a1.45 1.45 0 0 0-1.06.53 2.69 2.69 0 0 0-.707 1.297 4.77 4.77 0 0 0-.234 1.418zm25.613.47l.586.355a4.2 4.2 0 0 1-.645 1.477c-.355.6-.945 1.004-1.652 1.004-.586 0-1.06-.473-1.47-1.36-.355-.766-.6-1.535-.824-2.3l-.53-1.828c-.293-.945-.53-1.36-.766-1.36-.6 2.3-1.473 4.074-2.6 5.195-1.062 1.12-2.594 1.77-4.12 1.7-.945 0-1.828-.297-2.594-.828-.4-.293-.707-.648-.883-1.12a3.95 3.95 0 0 1-.352-1.652 4.5 4.5 0 0 1 .352-1.77c.235-.532.53-1.004 1-1.36.766-.707 1.77-1.062 2.828-1.062a10.97 10.97 0 0 1 1.648-5.723c.883-1.535 2.18-2.773 3.77-3.543.648-.293 1.352-.47 2.06-.47.53 0 1.12.06 1.648.234a5.5 5.5 0 0 1 1.297.707c.414.355.707.77.94 1.3a5.06 5.06 0 0 1 .355 1.887c0 .707-.117 1.36-.297 2.008a6.02 6.02 0 0 1-.824 1.77c-.707 1.004-1.6 1.828-2.6 2.48.414.47.824 1.53 1.355 3.246l.586 1.652c.238.47.473.707.707.707s.473-.176.6-.414.234-.6.414-.945zm-10.66-1.18l-.527.18c-.18-.652-.355-1.36-.414-2.008l-.06-.473c-.94 0-1.883.297-2.648.945-.297.234-.473.53-.648.824-.176.355-.293.77-.234 1.18 0 .414.117.828.293 1.242a2.18 2.18 0 0 0 .766.883 3.57 3.57 0 0 0 2.062.652c1.176.06 2.352-.473 3.117-1.36.887-1.12 1.53-2.48 1.828-3.895.117-.355.234-.828.352-1.418l.355-1.473c.06-.355.234-.828.352-1.36s.293-1.004.414-1.355a9.72 9.72 0 0 1 .527-1.242c.176-.4.414-.824.648-1.238.473-.766 1.06-1.477 1.766-2.008-.234-.176-.527-.234-.824-.293-.4-.117-.824-.117-1.234-.117-.824 0-1.6.293-2.238.766-.766.53-1.473 1.18-2.062 1.95-.648.883-1.117 1.828-1.473 2.832a9.05 9.05 0 0 0-.586 3.246c1.352.234 2.473 1.12 3.12 2.3l-.297.414c-.06 0-.117-.117-.293-.238s-.297-.293-.473-.4l-.527-.355a2.65 2.65 0 0 0-1.473-.414c.06.53.117 1.062.293 1.535 0 .414.117.648.117.707zm5.36-3.008a5.81 5.81 0 0 0 2.648-2.242c.707-1.062 1.12-2.363 1.062-3.66 0-.473-.06-1.004-.238-1.477-.117-.414-.293-.824-.586-1.18-.648.6-1.18 1.297-1.473 2.125l-.473 1.18c-.176.473-.293.945-.352 1.418-.18.766-.297 1.535-.414 2.36l-.176 1.477zm8.598 4.426c-.06.707.4 1.297 1.117 1.355h.293c.355 0 .766-.176 1.062-.4a3.18 3.18 0 0 0 .883-.887l.4.355a3.34 3.34 0 0 1-2.414 2.004c-.234.06-.47.06-.703.06-.648 0-1.238-.293-1.652-.824-.47-.6-.645-1.36-.645-2.066 0-.766.176-1.594.586-2.242.355-.648.824-1.18 1.414-1.594.473-.355 1.06-.6 1.707-.6.53 0 1.062.176 1.414.53.414.355.648.824.6 1.355a3.23 3.23 0 0 1-.355 1.477c-.234.414-.586.707-1 .945-.707.414-1.53.6-2.297.648zm-.06-.648c.586 0 1.117-.18 1.6-.414.355-.18.645-.47.824-.828.176-.293.234-.648.234-1 0-.297-.06-.594-.234-.828-.117-.176-.238-.234-.473-.234a1.45 1.45 0 0 0-1.06.53c-.355.352-.6.824-.766 1.297-.06.414-.117.945-.117 1.477zm10.066 1.53c-.648 1.125-1.414 1.652-2.297 1.652-.586 0-1.176-.352-1.47-.824-.414-.648-.648-1.418-.6-2.184a5.17 5.17 0 0 1 1-3.07 2.98 2.98 0 0 1 2.297-1.297 1.94 1.94 0 0 1 1.117.355c.297.234.53.53.6.94l1.18-5.2c.4-1.594.883-3.13 1.47-4.664h1.473c-.824 2.422-1.53 4.898-2.06 7.437l-1.238 6.55c0 .293.06.473.117.473.238 0 .648-.53 1.18-1.535l.4.473a7.21 7.21 0 0 1-1.234 2.008c-.238.352-.648.527-1.062.648-.234 0-.47-.18-.586-.355-.18-.355-.238-.707-.238-1.12v-.117c-.06-.117-.06-.18-.06-.18zm-2.766-1.473c0 1.297.352 1.945 1.117 1.945s1.297-.6 1.707-1.828c.18-.473.297-.945.297-1.418 0-1.297-.355-1.945-1.12-1.945a1.92 1.92 0 0 0-1.41.883c-.414.7-.648 1.535-.6 2.363zm8.9.6c-.06.707.4 1.297 1.117 1.355h.297c.352 0 .766-.117 1.06-.352a3.18 3.18 0 0 0 .883-.887l.414.355c-.414 1.004-1.297 1.77-2.414 2.004-.238.06-.473.06-.707.06-.648 0-1.238-.293-1.648-.824-.473-.6-.648-1.36-.648-2.066 0-.766.176-1.594.6-2.242a4.71 4.71 0 0 1 1.4-1.594c.473-.352 1.062-.6 1.707-.6.53 0 1.062.176 1.414.53.414.355.6.828.6 1.36a3.22 3.22 0 0 1-.352 1.473c-.238.414-.6.7-1.004.945-.707.414-1.53.6-2.297.648zm-.06-.648c.6 0 1.117-.18 1.6-.414a1.86 1.86 0 0 0 .824-.828c.176-.293.234-.648.234-1 0-.297-.06-.53-.234-.77-.117-.117-.234-.234-.473-.234-.4 0-.824.176-1.06.53-.355.352-.6.824-.766 1.297 0 .414-.117.887-.117 1.418zm8.9-3.13l-.234 1.238-1.004 4.723c-.527 1.7-1.176 2.832-2 3.305a1.99 1.99 0 0 1-1 .293c-.238 0-.53-.06-.707-.234-.117-.176-.238-.414-.238-.648s.063-.414.18-.648c.117-.18.293-.238.47-.238s.355.06.473.18.176.293.176.47-.06.355-.117.53c.648-.117 1.176-1.652 1.707-4.66.06-.473.176-1.004.293-1.652l.238-1.418.234-1.238h-1.707l.117-.766h1.707c.707-3.84 1.6-6.55 2.53-8.027.824-1.238 1.77-1.9 2.887-1.9.473 0 .883.12 1.297.414.352.355.586.828.527 1.36 0 .293-.06.648-.293.883-.176.18-.414.297-.648.297s-.473-.117-.648-.297-.293-.473-.293-.766.06-.648.234-.887a1.57 1.57 0 0 0-.707-.176c-.234.06-.4.176-.586.355-.238.234-.473.527-.6.883-.707 1.418-1.414 4.074-2.062 7.9h2.18l-.117.824h-2.297zm4.477 6.375c-.238 0-.473-.12-.6-.297-.176-.234-.234-.53-.234-.824 0-.473.117-1.004.234-1.477.117-.648.293-1.18.4-1.7.117-.355.18-.648.238-1.004 0-.176-.06-.238-.12-.238-.234 0-.527.53-1 1.652l-.6-.47c.887-1.95 1.7-2.953 2.418-2.953.527 0 .762.414.762 1.238 0 .414-.06.77-.176 1.184l-.648 2.477a2.09 2.09 0 0 0-.117.648c0 .18.06.297.18.297.234 0 .586-.53 1.117-1.477l.352.473c-.293.707-.645 1.36-1.176 1.9-.473.352-.824.6-1.06.6zm2.6-10.918a1.66 1.66 0 0 1-.234.883c-.133.238-.38.395-.648.414-.238 0-.473-.117-.648-.355-.117-.234-.234-.53-.234-.824s.06-.648.234-.887c.133-.238.375-.395.648-.414a.64.64 0 0 1 .586.355c.18.238.297.53.297.828zm3.53 7.375c1.238-2.598 2.414-3.836 3.414-3.836.297 0 .6.117.766.414s.238.648.238 1.004c-.06.707-.176 1.473-.414 2.125-.176.6-.352 1.238-.4 1.887 0 .234.06.355.117.355s.293-.18.53-.473c.234-.355.47-.648.645-1.062l.355.473c-.297.707-.648 1.355-1.18 1.945-.4.414-.766.648-1.06.648-.234 0-.473-.117-.648-.352-.176-.297-.234-.648-.234-.945a12.14 12.14 0 0 1 .352-2.008 10.88 10.88 0 0 0 .355-1.945c0-.414-.117-.6-.297-.6s-.47.176-.824.6a6 6 0 0 0-.883 1.414l-1.473 3.07-.234.6h-1.297l.297-1.12a25.35 25.35 0 0 0 .824-3.66c0-.4-.06-.6-.117-.6s-.355.297-.648.828c-.06.117-.117.234-.117.293s-.06.18-.117.297l-.06.176-.6-.473c.352-.766.766-1.53 1.293-2.242a1.68 1.68 0 0 1 1.18-.707c.176 0 .352.117.473.297a1.57 1.57 0 0 1 .176.707c0 .293 0 .6-.06.883s-.06.53-.117.7-.063.4-.18.707-.06.53-.06.6zm8.305 1.004c-.06.707.4 1.297 1.117 1.355h.293c.355 0 .766-.176 1.062-.352a3.18 3.18 0 0 0 .883-.887l.4.355a3.33 3.33 0 0 1-2.414 2.004c-.234.063-.47.063-.707.063-.645 0-1.234-.297-1.648-.828-.47-.6-.645-1.355-.645-2.066 0-.766.176-1.594.586-2.3.355-.648.824-1.18 1.414-1.594.473-.352 1.06-.6 1.707-.6.53 0 1.062.176 1.414.53.4.355.648.828.648 1.36 0 .512-.12 1.016-.355 1.473-.234.414-.586.7-1 .945-.707.414-1.53.6-2.297.648zm-.06-.648c.586 0 1.117-.18 1.6-.414.355-.18.645-.47.824-.828.176-.293.234-.648.234-1 0-.297-.06-.53-.234-.77-.12-.117-.238-.234-.473-.234-.414 0-.824.176-1.06.53a2.69 2.69 0 0 0-.707 1.297c-.117.414-.176.887-.176 1.418zm10.066 1.535c-.648 1.12-1.414 1.652-2.238 1.652-.586 0-1.176-.355-1.473-.828-.4-.648-.645-1.418-.586-2.184a5.17 5.17 0 0 1 1-3.07c.53-.766 1.355-1.238 2.238-1.297a1.94 1.94 0 0 1 1.117.355c.297.234.53.53.6.94l1.176-5.2c.414-1.594.887-3.13 1.473-4.664h1.473c-.824 2.422-1.53 4.898-2.06 7.437l-1.238 6.55c0 .297.06.473.117.473.234 0 .648-.53 1.18-1.535l.4.473c-.293.707-.707 1.418-1.234 2.008-.414.4-.766.648-1.062.648-.234 0-.47-.18-.6-.355-.176-.352-.234-.707-.234-1.12v-.06zm-2.766-1.418c0 1.297.352 1.95 1.117 1.95s1.297-.594 1.707-1.832c.176-.473.297-.945.297-1.414 0-1.3-.355-1.95-1.12-1.95-.6.06-1.117.355-1.414.887-.4.648-.586 1.53-.586 2.36zm0 0" stroke="rgb(100%,100%,100%)" stroke-miterlimit="10" stroke-width=".153" fill="rgb(0%,33.72549%,50.980392%)"/><g fill="rgb(0%,0%,0%)"><path d="M108.28 48.73L92.62 33.918c-.355-.297-.824-.355-1.238-.06l-4.004 3.13c-.234.176-.352.473-.352.707v10.387a.93.93 0 0 1-.941.945h-3.238a.94.94 0 0 1-.672-.273.96.96 0 0 1-.273-.672v-30.63a.96.96 0 0 1 .273-.672.94.94 0 0 1 .672-.273h3.238a.93.93 0 0 1 .941.945V30.38c-.004.25.094.492.273.668s.418.277.668.273a1.13 1.13 0 0 0 .59-.176l19.195-14.93c.293-.238.766-.238 1.06-.062l1.824 1.184a1.02 1.02 0 0 1 .297 1.297c-.06.06-.117.176-.238.234L96.21 30.082c-.4.297-.47.887-.176 1.297l.117.12 16.78 15.934c.355.352.414.945.06 1.297-.176.176-.4.297-.645.297h-3.477c-.234 0-.4-.12-.6-.297zm36.39-31.69l16.016 30.512a.9.9 0 0 1-.414 1.238c-.117.06-.176.06-.293.117l-3.062.355c-.4.06-.766-.176-.94-.473l-4.355-8.437a.94.94 0 0 0-.824-.473h-17.43c-.355 0-.648.176-.824.53l-4.062 8.086c-.18.293-.473.53-.824.53h-2.887a.93.93 0 0 1-.941-.945c0-.117.06-.297.117-.414l15.367-30.63c.176-.293.473-.53.824-.53h3.77c.293 0 .6.238.766.53zm-3.594 6.078l-6.18 12.277a.9.9 0 0 0 .41 1.238c.117.06.297.117.414.117h12.602c.25.004.492-.094.668-.273a.93.93 0 0 0 .273-.672c0-.176-.06-.293-.117-.4l-6.418-12.277a.9.9 0 0 0-1.238-.414c-.176.063-.293.238-.414.414zm0 0"/><use xlink:href="#B"/><path d="M222.512 48.082v-30.63a.96.96 0 0 1 .273-.672.93.93 0 0 1 .672-.273h3.238a.93.93 0 0 1 .668.273c.176.18.277.422.273.672v30.63a.95.95 0 0 1-.273.672.93.93 0 0 1-.668.273h-3.238a.93.93 0 0 1-.672-.273.96.96 0 0 1-.273-.672zm20.785 0v-30.63c0-.53.414-.945.883-.945h2.77c.234 0 .47.117.648.297l21.195 21.715 1 1.184c.355.4.887.47 1.297.117.234-.176.355-.414.355-.707v-21.66a.94.94 0 0 1 .941-.945h3.297a.93.93 0 0 1 .941.945v30.63a.93.93 0 0 1-.941.945h-2.77c-.234 0-.47-.12-.645-.297l-22.14-23.133c-.293-.414-.883-.473-1.297-.18-.234.18-.352.473-.352.77v21.895a.95.95 0 0 1-.273.672.93.93 0 0 1-.668.273h-3.297c-.53-.06-.945-.473-.945-.945zm48.992 0v-30.63a.94.94 0 0 1 .27-.672c.18-.176.422-.277.672-.273h3.238a.93.93 0 0 1 .941.945v30.63a.93.93 0 0 1-.941.945h-3.238a.95.95 0 0 1-.672-.273.94.94 0 0 1-.27-.672zm0 0"/></g><path d="M5.477 34.98h19.137c2.766 0 4.945 2.242 4.945 4.957v19.18c0 2.773-2.238 4.957-4.945 4.957h-.176c-2.77 0-4.95-2.242-4.95-4.957V44.953H5.477c-2.77 0-4.945-2.242-4.945-4.957-.06-2.773 2.176-5.016 4.945-5.016zm0 0" fill="rgb(0%,53.333333%,80.784314%)"/><path d="M59 30.082H39.863c-2.77 0-4.945-2.242-4.945-4.957V5.945A4.94 4.94 0 0 1 39.863.988h.176c2.77 0 4.945 2.242 4.945 4.957v14.223H59c2.766 0 4.945 2.242 4.945 4.957.06 2.715-2.18 4.957-4.945 4.957zm0 0" fill="rgb(0%,65.882353%,89.411765%)"/><path d="M2.297 10.547l51.875 51.875a5.57 5.57 0 0 0 7.891 0c2.176-2.184 2.176-5.723 0-7.906L10.246 2.523C8.125.398 4.652.34 2.414 2.402.117 4.47 0 8.07 2.12 10.37zm0 0" fill="rgb(66.27451%,81.960784%,36.470588%)"/><path d="M24.496 34.98h.117c2.766 0 4.945 2.242 4.945 4.957 0 2.773-2.238 4.957-4.945 4.957h-5.066c-.06 0-.06 0-.06-.06v-4.898c0-2.715 2.238-4.957 5.008-4.957zm0 0" fill="rgb(0%,65.882353%,89.411765%)"/><path d="M40.04 30.082h-.117c-2.77 0-4.945-2.242-4.945-4.957 0-2.773 2.238-4.957 4.945-4.957h5.12v4.957c0 2.715-2.234 4.957-5.004 4.957zm0 0" fill="rgb(40.784314%,80.784314%,94.901961%)"/><defs ><path id="B" d="M172.875 48.082v-30.63c-.004-.25.098-.492.273-.672a.93.93 0 0 1 .668-.273h2.77c.234 0 .47.117.648.297L198.43 38.52l1 1.184c.355.4.887.47 1.297.117.234-.176.355-.414.355-.707v-21.66a.94.94 0 0 1 .941-.945h3.297a.93.93 0 0 1 .941.945v30.63a.93.93 0 0 1-.941.945h-2.828c-.234 0-.47-.12-.648-.297l-22.137-23.133c-.297-.414-.883-.473-1.297-.18-.234.18-.352.473-.352.77v21.895c.004.25-.098.492-.273.672a.93.93 0 0 1-.668.273h-3.242c-.586 0-1-.414-1-.945zm0 0"/></defs></svg>